<svg width="1905" height="429" viewBox="0 0 1905 429" fill="none" xmlns="http://www.w3.org/2000/svg">
<path d="M79.7709 168.396C79.7709 168.104 79.7257 167.844 79.6355 167.615C79.5521 167.378 79.3959 167.167 79.1667 166.979C78.9445 166.785 78.6285 166.597 78.2188 166.417C77.816 166.229 77.2952 166.035 76.6563 165.833C75.948 165.611 75.2882 165.361 74.6771 165.083C74.066 164.805 73.5278 164.483 73.0625 164.115C72.6042 163.746 72.2466 163.323 71.9896 162.844C71.7327 162.358 71.6042 161.795 71.6042 161.156C71.6042 160.531 71.7362 159.962 72 159.448C72.2709 158.934 72.6528 158.493 73.1459 158.125C73.6389 157.75 74.2188 157.462 74.8855 157.26C75.5591 157.059 76.3021 156.958 77.1146 156.958C78.2396 156.958 79.2118 157.163 80.0313 157.573C80.8577 157.983 81.4966 158.538 81.948 159.24C82.3993 159.941 82.625 160.729 82.625 161.604H79.7709C79.7709 161.132 79.6702 160.715 79.4688 160.354C79.2743 159.993 78.9757 159.708 78.573 159.5C78.1771 159.292 77.6771 159.187 77.073 159.187C76.4896 159.187 76.0035 159.274 75.6146 159.448C75.2327 159.621 74.9445 159.858 74.75 160.156C74.5625 160.455 74.4688 160.788 74.4688 161.156C74.4688 161.434 74.5348 161.684 74.6667 161.906C74.7987 162.121 74.9966 162.326 75.2605 162.521C75.5243 162.708 75.8507 162.885 76.2396 163.052C76.6355 163.212 77.0938 163.371 77.6146 163.531C78.448 163.781 79.1771 164.059 79.8021 164.365C80.4341 164.67 80.9584 165.017 81.375 165.406C81.7987 165.795 82.1146 166.233 82.323 166.719C82.5382 167.205 82.6459 167.757 82.6459 168.375C82.6459 169.028 82.5174 169.611 82.2605 170.125C82.0035 170.639 81.6355 171.076 81.1563 171.437C80.6771 171.799 80.1007 172.073 79.4271 172.26C78.7605 172.448 78.0139 172.542 77.1875 172.542C76.4514 172.542 75.7223 172.444 75 172.25C74.2848 172.049 73.6355 171.75 73.0521 171.354C72.4688 170.951 72.0035 170.444 71.6563 169.833C71.3091 169.215 71.1355 168.493 71.1355 167.667H74.0105C74.0105 168.146 74.0868 168.555 74.2396 168.896C74.3993 169.229 74.6216 169.503 74.9063 169.719C75.198 169.927 75.5382 170.08 75.9271 170.177C76.316 170.274 76.7362 170.323 77.1875 170.323C77.7709 170.323 78.25 170.243 78.625 170.083C79.007 169.917 79.2917 169.687 79.4792 169.396C79.6737 169.104 79.7709 168.771 79.7709 168.396ZM87.3959 156.323V172.333H84.6459V156.323H87.3959ZM94.4584 161.062L89.5521 166.573L86.8959 169.271L86.0209 167.135L88.073 164.552L91.1355 161.062H94.4584ZM91.6459 172.333L88.1563 167.083L89.9896 165.302L94.8334 172.333H91.6459ZM98.8334 161.062V172.333H96.073V161.062H98.8334ZM95.8855 158.115C95.8855 157.705 96.0243 157.365 96.3021 157.094C96.5868 156.823 96.9688 156.687 97.448 156.687C97.9271 156.687 98.3056 156.823 98.5834 157.094C98.8681 157.365 99.0105 157.705 99.0105 158.115C99.0105 158.517 98.8681 158.854 98.5834 159.125C98.3056 159.396 97.9271 159.531 97.448 159.531C96.9688 159.531 96.5868 159.396 96.3021 159.125C96.0243 158.854 95.8855 158.517 95.8855 158.115ZM104.375 156.333V172.333H101.615V156.333H104.375ZM109.917 156.333V172.333H107.156V156.333H109.917ZM118.74 169.25C118.74 169.014 118.677 168.802 118.552 168.615C118.427 168.427 118.191 168.257 117.844 168.104C117.504 167.944 117.004 167.795 116.344 167.656C115.76 167.531 115.222 167.375 114.729 167.187C114.236 167 113.813 166.774 113.458 166.51C113.104 166.24 112.826 165.924 112.625 165.562C112.431 165.194 112.333 164.771 112.333 164.292C112.333 163.826 112.434 163.389 112.635 162.979C112.837 162.562 113.129 162.198 113.51 161.885C113.892 161.566 114.358 161.316 114.906 161.135C115.455 160.948 116.073 160.854 116.76 160.854C117.719 160.854 118.542 161.01 119.229 161.323C119.924 161.635 120.455 162.066 120.823 162.615C121.191 163.156 121.375 163.767 121.375 164.448H118.625C118.625 164.149 118.556 163.878 118.417 163.635C118.285 163.392 118.08 163.198 117.802 163.052C117.524 162.899 117.174 162.823 116.75 162.823C116.368 162.823 116.045 162.885 115.781 163.01C115.524 163.135 115.33 163.299 115.198 163.5C115.066 163.701 115 163.924 115 164.167C115 164.347 115.035 164.51 115.104 164.656C115.181 164.795 115.302 164.924 115.469 165.042C115.635 165.16 115.861 165.267 116.146 165.365C116.438 165.462 116.795 165.555 117.219 165.646C118.059 165.812 118.792 166.035 119.417 166.312C120.049 166.583 120.542 166.944 120.896 167.396C121.25 167.847 121.427 168.424 121.427 169.125C121.427 169.625 121.319 170.083 121.104 170.5C120.889 170.91 120.576 171.267 120.167 171.573C119.757 171.878 119.267 172.118 118.698 172.292C118.129 172.458 117.486 172.542 116.771 172.542C115.736 172.542 114.861 172.358 114.146 171.99C113.431 171.615 112.889 171.142 112.521 170.573C112.153 169.996 111.969 169.399 111.969 168.781H114.604C114.625 169.219 114.743 169.569 114.958 169.833C115.174 170.097 115.444 170.288 115.771 170.406C116.104 170.517 116.455 170.573 116.823 170.573C117.24 170.573 117.59 170.517 117.875 170.406C118.16 170.288 118.375 170.132 118.521 169.937C118.667 169.736 118.74 169.507 118.74 169.25Z" fill="#282938"/>
<path d="M104.74 235.698V243.01H80.9897V235.698H104.74ZM83.771 217.167V262.667H74.396V217.167H83.771ZM111.427 217.167V262.667H102.083V217.167H111.427ZM137.271 255.042V239.979C137.271 238.896 137.094 237.969 136.74 237.198C136.386 236.406 135.833 235.792 135.083 235.354C134.354 234.917 133.406 234.698 132.24 234.698C131.24 234.698 130.375 234.875 129.646 235.229C128.917 235.562 128.354 236.052 127.958 236.698C127.563 237.323 127.365 238.062 127.365 238.917H118.365C118.365 237.479 118.698 236.114 119.365 234.823C120.031 233.531 121 232.396 122.271 231.417C123.542 230.417 125.052 229.635 126.802 229.073C128.573 228.51 130.552 228.229 132.74 228.229C135.365 228.229 137.698 228.667 139.74 229.542C141.781 230.417 143.386 231.729 144.552 233.479C145.74 235.229 146.333 237.417 146.333 240.042V254.51C146.333 256.364 146.448 257.885 146.677 259.073C146.906 260.239 147.24 261.26 147.677 262.135V262.667H138.583C138.146 261.75 137.813 260.604 137.583 259.229C137.375 257.833 137.271 256.437 137.271 255.042ZM138.458 242.073L138.521 247.167H133.49C132.302 247.167 131.271 247.302 130.396 247.573C129.521 247.844 128.802 248.229 128.24 248.729C127.677 249.208 127.261 249.771 126.99 250.417C126.74 251.062 126.615 251.771 126.615 252.542C126.615 253.312 126.792 254.01 127.146 254.635C127.5 255.239 128.011 255.719 128.677 256.073C129.344 256.406 130.125 256.573 131.021 256.573C132.375 256.573 133.552 256.302 134.552 255.76C135.552 255.219 136.323 254.552 136.865 253.76C137.427 252.969 137.719 252.219 137.74 251.51L140.115 255.323C139.781 256.177 139.323 257.062 138.74 257.979C138.177 258.896 137.458 259.76 136.583 260.573C135.708 261.364 134.656 262.021 133.427 262.542C132.198 263.042 130.74 263.292 129.052 263.292C126.906 263.292 124.958 262.864 123.208 262.01C121.479 261.135 120.104 259.937 119.083 258.417C118.083 256.875 117.583 255.125 117.583 253.167C117.583 251.396 117.917 249.823 118.583 248.448C119.25 247.073 120.229 245.917 121.521 244.979C122.833 244.021 124.469 243.302 126.427 242.823C128.386 242.323 130.656 242.073 133.24 242.073H138.458ZM153.271 214.667H162.271V254.917L161.365 262.667H153.271V214.667ZM183.677 245.417V246.073C183.677 248.594 183.406 250.906 182.865 253.01C182.344 255.114 181.531 256.937 180.427 258.479C179.323 260 177.948 261.187 176.302 262.042C174.677 262.875 172.761 263.292 170.552 263.292C168.49 263.292 166.698 262.875 165.177 262.042C163.677 261.208 162.417 260.031 161.396 258.51C160.375 256.989 159.552 255.208 158.927 253.167C158.302 251.125 157.833 248.896 157.521 246.479V245.042C157.833 242.625 158.302 240.396 158.927 238.354C159.552 236.312 160.375 234.531 161.396 233.01C162.417 231.489 163.677 230.312 165.177 229.479C166.677 228.646 168.448 228.229 170.49 228.229C172.719 228.229 174.656 228.656 176.302 229.51C177.969 230.344 179.344 231.531 180.427 233.073C181.531 234.594 182.344 236.406 182.865 238.51C183.406 240.594 183.677 242.896 183.677 245.417ZM174.677 246.073V245.417C174.677 244.042 174.573 242.75 174.365 241.542C174.177 240.312 173.844 239.239 173.365 238.323C172.886 237.385 172.229 236.646 171.396 236.104C170.583 235.562 169.531 235.292 168.24 235.292C167.011 235.292 165.969 235.5 165.115 235.917C164.261 236.333 163.552 236.917 162.99 237.667C162.448 238.417 162.042 239.312 161.771 240.354C161.5 241.375 161.333 242.5 161.271 243.729V247.823C161.333 249.469 161.604 250.927 162.083 252.198C162.583 253.448 163.333 254.437 164.333 255.167C165.354 255.875 166.677 256.229 168.302 256.229C169.573 256.229 170.625 255.979 171.458 255.479C172.292 254.979 172.938 254.271 173.396 253.354C173.875 252.437 174.208 251.364 174.396 250.135C174.583 248.885 174.677 247.531 174.677 246.073ZM198.771 228.854V262.667H189.74V228.854H198.771ZM189.177 220.042C189.177 218.729 189.636 217.646 190.552 216.792C191.469 215.937 192.698 215.51 194.24 215.51C195.761 215.51 196.979 215.937 197.896 216.792C198.833 217.646 199.302 218.729 199.302 220.042C199.302 221.354 198.833 222.437 197.896 223.292C196.979 224.146 195.761 224.573 194.24 224.573C192.698 224.573 191.469 224.146 190.552 223.292C189.636 222.437 189.177 221.354 189.177 220.042ZM215.708 214.667V262.667H206.677V214.667H215.708ZM232.646 228.854V262.667H223.615V228.854H232.646ZM223.052 220.042C223.052 218.729 223.511 217.646 224.427 216.792C225.344 215.937 226.573 215.51 228.115 215.51C229.636 215.51 230.854 215.937 231.771 216.792C232.708 217.646 233.177 218.729 233.177 220.042C233.177 221.354 232.708 222.437 231.771 223.292C230.854 224.146 229.636 224.573 228.115 224.573C226.573 224.573 225.344 224.146 224.427 223.292C223.511 222.437 223.052 221.354 223.052 220.042ZM260.052 255.292V214.667H269.115V262.667H260.958L260.052 255.292ZM238.677 246.167V245.51C238.677 242.927 238.969 240.583 239.552 238.479C240.136 236.354 240.99 234.531 242.115 233.01C243.24 231.489 244.625 230.312 246.271 229.479C247.917 228.646 249.792 228.229 251.896 228.229C253.875 228.229 255.604 228.646 257.083 229.479C258.583 230.312 259.854 231.5 260.896 233.042C261.958 234.562 262.813 236.364 263.458 238.448C264.104 240.51 264.573 242.771 264.865 245.229V246.667C264.573 249.021 264.104 251.208 263.458 253.229C262.813 255.25 261.958 257.021 260.896 258.542C259.854 260.042 258.583 261.208 257.083 262.042C255.583 262.875 253.833 263.292 251.833 263.292C249.729 263.292 247.854 262.864 246.208 262.01C244.583 261.156 243.208 259.958 242.083 258.417C240.979 256.875 240.136 255.062 239.552 252.979C238.969 250.896 238.677 248.625 238.677 246.167ZM247.677 245.51V246.167C247.677 247.562 247.781 248.864 247.99 250.073C248.219 251.281 248.583 252.354 249.083 253.292C249.604 254.208 250.271 254.927 251.083 255.448C251.917 255.948 252.927 256.198 254.115 256.198C255.656 256.198 256.927 255.854 257.927 255.167C258.927 254.458 259.688 253.489 260.208 252.26C260.75 251.031 261.063 249.614 261.146 248.01V243.917C261.083 242.604 260.896 241.427 260.583 240.385C260.292 239.323 259.854 238.417 259.271 237.667C258.708 236.917 258 236.333 257.146 235.917C256.313 235.5 255.323 235.292 254.177 235.292C253.011 235.292 252.011 235.562 251.177 236.104C250.344 236.625 249.667 237.344 249.146 238.26C248.646 239.177 248.271 240.26 248.021 241.51C247.792 242.739 247.677 244.073 247.677 245.51ZM294.396 255.042V239.979C294.396 238.896 294.219 237.969 293.865 237.198C293.511 236.406 292.958 235.792 292.208 235.354C291.479 234.917 290.531 234.698 289.365 234.698C288.365 234.698 287.5 234.875 286.771 235.229C286.042 235.562 285.479 236.052 285.083 236.698C284.688 237.323 284.49 238.062 284.49 238.917H275.49C275.49 237.479 275.823 236.114 276.49 234.823C277.156 233.531 278.125 232.396 279.396 231.417C280.667 230.417 282.177 229.635 283.927 229.073C285.698 228.51 287.677 228.229 289.865 228.229C292.49 228.229 294.823 228.667 296.865 229.542C298.906 230.417 300.511 231.729 301.677 233.479C302.865 235.229 303.458 237.417 303.458 240.042V254.51C303.458 256.364 303.573 257.885 303.802 259.073C304.031 260.239 304.365 261.26 304.802 262.135V262.667H295.708C295.271 261.75 294.938 260.604 294.708 259.229C294.5 257.833 294.396 256.437 294.396 255.042ZM295.583 242.073L295.646 247.167H290.615C289.427 247.167 288.396 247.302 287.521 247.573C286.646 247.844 285.927 248.229 285.365 248.729C284.802 249.208 284.386 249.771 284.115 250.417C283.865 251.062 283.74 251.771 283.74 252.542C283.74 253.312 283.917 254.01 284.271 254.635C284.625 255.239 285.136 255.719 285.802 256.073C286.469 256.406 287.25 256.573 288.146 256.573C289.5 256.573 290.677 256.302 291.677 255.76C292.677 255.219 293.448 254.552 293.99 253.76C294.552 252.969 294.844 252.219 294.865 251.51L297.24 255.323C296.906 256.177 296.448 257.062 295.865 257.979C295.302 258.896 294.583 259.76 293.708 260.573C292.833 261.364 291.781 262.021 290.552 262.542C289.323 263.042 287.865 263.292 286.177 263.292C284.031 263.292 282.083 262.864 280.333 262.01C278.604 261.135 277.229 259.937 276.208 258.417C275.208 256.875 274.708 255.125 274.708 253.167C274.708 251.396 275.042 249.823 275.708 248.448C276.375 247.073 277.354 245.917 278.646 244.979C279.958 244.021 281.594 243.302 283.552 242.823C285.511 242.323 287.781 242.073 290.365 242.073H295.583ZM330.365 255.292V214.667H339.427V262.667H331.271L330.365 255.292ZM308.99 246.167V245.51C308.99 242.927 309.281 240.583 309.865 238.479C310.448 236.354 311.302 234.531 312.427 233.01C313.552 231.489 314.938 230.312 316.583 229.479C318.229 228.646 320.104 228.229 322.208 228.229C324.188 228.229 325.917 228.646 327.396 229.479C328.896 230.312 330.167 231.5 331.208 233.042C332.271 234.562 333.125 236.364 333.771 238.448C334.417 240.51 334.886 242.771 335.177 245.229V246.667C334.886 249.021 334.417 251.208 333.771 253.229C333.125 255.25 332.271 257.021 331.208 258.542C330.167 260.042 328.896 261.208 327.396 262.042C325.896 262.875 324.146 263.292 322.146 263.292C320.042 263.292 318.167 262.864 316.521 262.01C314.896 261.156 313.521 259.958 312.396 258.417C311.292 256.875 310.448 255.062 309.865 252.979C309.281 250.896 308.99 248.625 308.99 246.167ZM317.99 245.51V246.167C317.99 247.562 318.094 248.864 318.302 250.073C318.531 251.281 318.896 252.354 319.396 253.292C319.917 254.208 320.583 254.927 321.396 255.448C322.229 255.948 323.24 256.198 324.427 256.198C325.969 256.198 327.24 255.854 328.24 255.167C329.24 254.458 330 253.489 330.521 252.26C331.063 251.031 331.375 249.614 331.458 248.01V243.917C331.396 242.604 331.208 241.427 330.896 240.385C330.604 239.323 330.167 238.417 329.583 237.667C329.021 236.917 328.313 236.333 327.458 235.917C326.625 235.5 325.636 235.292 324.49 235.292C323.323 235.292 322.323 235.562 321.49 236.104C320.656 236.625 319.979 237.344 319.458 238.26C318.958 239.177 318.583 240.26 318.333 241.51C318.104 242.739 317.99 244.073 317.99 245.51ZM362.021 263.292C359.396 263.292 357.042 262.875 354.958 262.042C352.875 261.187 351.104 260.01 349.646 258.51C348.208 257.01 347.104 255.271 346.333 253.292C345.563 251.292 345.177 249.167 345.177 246.917V245.667C345.177 243.104 345.542 240.76 346.271 238.635C347 236.51 348.042 234.667 349.396 233.104C350.771 231.542 352.438 230.344 354.396 229.51C356.354 228.656 358.563 228.229 361.021 228.229C363.417 228.229 365.542 228.625 367.396 229.417C369.25 230.208 370.802 231.333 372.052 232.792C373.323 234.25 374.281 236 374.927 238.042C375.573 240.062 375.896 242.312 375.896 244.792V248.542H349.021V242.542H367.052V241.854C367.052 240.604 366.823 239.489 366.365 238.51C365.927 237.51 365.261 236.719 364.365 236.135C363.469 235.552 362.323 235.26 360.927 235.26C359.74 235.26 358.719 235.521 357.865 236.042C357.011 236.562 356.313 237.292 355.771 238.229C355.25 239.167 354.854 240.271 354.583 241.542C354.333 242.792 354.208 244.167 354.208 245.667V246.917C354.208 248.271 354.396 249.521 354.771 250.667C355.167 251.812 355.719 252.802 356.427 253.635C357.156 254.469 358.031 255.114 359.052 255.573C360.094 256.031 361.271 256.26 362.583 256.26C364.208 256.26 365.719 255.948 367.115 255.323C368.531 254.677 369.75 253.708 370.771 252.417L375.146 257.167C374.438 258.187 373.469 259.167 372.24 260.104C371.031 261.042 369.573 261.812 367.865 262.417C366.156 263 364.208 263.292 362.021 263.292ZM399.302 253.323C399.302 252.677 399.115 252.094 398.74 251.573C398.365 251.052 397.667 250.573 396.646 250.135C395.646 249.677 394.198 249.26 392.302 248.885C390.594 248.51 389 248.042 387.521 247.479C386.063 246.896 384.792 246.198 383.708 245.385C382.646 244.573 381.813 243.614 381.208 242.51C380.604 241.385 380.302 240.104 380.302 238.667C380.302 237.25 380.604 235.917 381.208 234.667C381.833 233.417 382.719 232.312 383.865 231.354C385.031 230.375 386.448 229.614 388.115 229.073C389.802 228.51 391.698 228.229 393.802 228.229C396.74 228.229 399.261 228.698 401.365 229.635C403.49 230.573 405.115 231.864 406.24 233.51C407.386 235.135 407.958 236.989 407.958 239.073H398.958C398.958 238.198 398.771 237.417 398.396 236.729C398.042 236.021 397.479 235.469 396.708 235.073C395.958 234.656 394.979 234.448 393.771 234.448C392.771 234.448 391.906 234.625 391.177 234.979C390.448 235.312 389.886 235.771 389.49 236.354C389.115 236.917 388.927 237.542 388.927 238.229C388.927 238.75 389.031 239.219 389.24 239.635C389.469 240.031 389.833 240.396 390.333 240.729C390.833 241.062 391.479 241.375 392.271 241.667C393.083 241.937 394.083 242.187 395.271 242.417C397.708 242.917 399.886 243.573 401.802 244.385C403.719 245.177 405.24 246.26 406.365 247.635C407.49 248.989 408.052 250.771 408.052 252.979C408.052 254.479 407.719 255.854 407.052 257.104C406.386 258.354 405.427 259.448 404.177 260.385C402.927 261.302 401.427 262.021 399.677 262.542C397.948 263.042 396 263.292 393.833 263.292C390.688 263.292 388.021 262.729 385.833 261.604C383.667 260.479 382.021 259.052 380.896 257.323C379.792 255.573 379.24 253.781 379.24 251.948H387.771C387.813 253.177 388.125 254.167 388.708 254.917C389.313 255.667 390.073 256.208 390.99 256.542C391.927 256.875 392.938 257.042 394.021 257.042C395.188 257.042 396.156 256.885 396.927 256.573C397.698 256.239 398.281 255.802 398.677 255.26C399.094 254.698 399.302 254.052 399.302 253.323Z" fill="#282938"/>
</svg>
